<?xml version="1.0" encoding="UTF-8"?>
<svg width="58px" height="66px" viewBox="0 0 58 66" version="1.1" xmlns="http://www.w3.org/2000/svg" xmlns:xlink="http://www.w3.org/1999/xlink">
    <title>tutorial-alphabet</title>
    <g id="Mobile-App" stroke="none" stroke-width="1" fill="none" fill-rule="evenodd">
        <g id="Icons" transform="translate(-437.000000, -231.000000)" fill="#000000" fill-rule="nonzero">
            <g id="tutorial-alphabet" transform="translate(437.000000, 231.000000)">
                <path d="M58,47.4375 L58,6.1875 C58,2.77019531 55.2165179,0 51.7857143,0 L10.3571429,0 C4.63741071,0 0,4.61742187 0,10.3125 L0,57.75 C0,62.3068359 3.70915179,66 8.28571429,66 L55.9285714,66 C57.0735536,66 58,65.0775469 58,63.9375 C58,62.7974531 57.0678571,61.875 55.9285714,61.875 L53.8571429,61.875 L53.8571429,53.2447266 C56.2651786,52.3875 58,50.11875 58,47.4375 Z M49.7142857,61.875 L8.28571429,61.875 C6.00196429,61.875 4.14285714,60.0239062 4.14285714,57.75 C4.14285714,55.4760937 6.00196429,53.625 8.28571429,53.625 L49.7142857,53.625 L49.7142857,61.875 Z M51.7857143,49.5 L8.28571429,49.5 C6.7696875,49.5 5.36629464,49.9368633 4.14285714,50.6472656 L4.14285714,10.3125 C4.14285714,6.89519531 6.92504464,4.125 10.3571429,4.125 L51.7857143,4.125 C52.925,4.125 53.8571429,5.04796875 53.8571429,6.1875 L53.8571429,47.4375 C53.8571429,48.571875 52.925,49.5 51.7857143,49.5 Z M30.8513393,13.509375 C30.1473125,12.1120312 27.8490625,12.1120312 27.1460714,13.509375 L14.7175,38.259375 C14.2022321,39.290625 14.6165179,40.528125 15.6392857,41.0308594 C16.6628304,41.5343672 17.9075,41.1275391 18.4188839,40.1084062 L21.9959821,33 L36.0040179,33 L39.5746429,40.1104687 C39.9397321,40.8375 40.6647321,41.25 41.4285714,41.25 C41.7400625,41.25 42.0556964,41.1795012 42.3530759,41.0324062 C43.3766205,40.5228398 43.7914241,39.2844375 43.2795223,38.2647891 L30.8513393,13.509375 Z M24.0674107,28.875 L29,19.0523437 L33.9325893,28.875 L24.0674107,28.875 Z" id="Shape"></path>
            </g>
        </g>
    </g>
</svg>