<?xml version="1.0" encoding="UTF-8"?>
<svg width="21px" height="24px" viewBox="0 0 21 24" version="1.1" xmlns="http://www.w3.org/2000/svg" xmlns:xlink="http://www.w3.org/1999/xlink">
    <title>alphabet</title>
    <g id="Mobile-App" stroke="none" stroke-width="1" fill="none" fill-rule="evenodd">
        <g id="Icons" transform="translate(-32.000000, -67.000000)" fill="#000000" fill-rule="nonzero">
            <g id="alphabet" transform="translate(32.000000, 67.000000)">
                <path d="M21,17.25 L21,2.25 C21,1.00734375 19.9921875,0 18.75,0 L3.75,0 C1.6790625,0 0,1.6790625 0,3.75 L0,21 C0,22.6570313 1.34296875,24 3,24 L20.25,24 C20.6645625,24 21,23.6645625 21,23.25 C21,22.8354375 20.6625,22.5 20.25,22.5 L19.5,22.5 L19.5,19.3617188 C20.371875,19.05 21,18.225 21,17.25 Z M18,22.5 L3,22.5 C2.173125,22.5 1.5,21.826875 1.5,21 C1.5,20.173125 2.173125,19.5 3,19.5 L18,19.5 L18,22.5 Z M18.75,18 L3,18 C2.45109375,18 1.94296875,18.1588594 1.5,18.4171875 L1.5,3.75 C1.5,2.50734375 2.50734375,1.5 3.75,1.5 L18.75,1.5 C19.1625,1.5 19.5,1.835625 19.5,2.25 L19.5,17.25 C19.5,17.6625 19.1625,18 18.75,18 Z M11.1703125,4.9125 C10.9154063,4.404375 10.0832812,4.404375 9.82875,4.9125 L5.32875,13.9125 C5.1421875,14.2875 5.2921875,14.7375 5.6625,14.9203125 C6.03309375,15.1034063 6.48375,14.9554687 6.66890625,14.584875 L7.9640625,12 L13.0359375,12 L14.32875,14.585625 C14.4609375,14.85 14.7234375,15 15,15 C15.1127812,15 15.2270625,14.9743641 15.3347344,14.920875 C15.7053281,14.7355781 15.8555156,14.28525 15.6701719,13.9144687 L11.1703125,4.9125 Z M8.7140625,10.5 L10.5,6.928125 L12.2859375,10.5 L8.7140625,10.5 Z" id="Shape"></path>
            </g>
        </g>
    </g>
</svg>