<?xml version="1.0" encoding="UTF-8"?>
<svg width="467px" height="132px" viewBox="0 0 467 132" version="1.1" xmlns="http://www.w3.org/2000/svg" xmlns:xlink="http://www.w3.org/1999/xlink">
    <title>logo@2x</title>
    <g id="Symbols" stroke="none" stroke-width="1" fill="none" fill-rule="evenodd">
        <g id="logo" transform="translate(0.879167, 0.345001)">
            <path d="M12.8683443,0 L272.577994,0 L223.407202,131 L12.8683443,131 C5.76135401,131 0,125.231079 0,118.114754 L0,12.8852459 C0,5.76892109 5.76135401,0 12.8683443,0 Z" id="Rectangle-Copy-9" fill="#013ABD"></path>
            <path d="M453.203939,131 L223.520427,131 L272.691219,0 L453.203939,0 C460.31093,0 466.072284,5.76892109 466.072284,12.8852459 L466.072284,118.114754 C466.072284,125.231079 460.31093,131 453.203939,131 Z" id="Rectangle-Copy-10" fill="#FFD500"></path>
            <polygon id="Path" fill="#FFFFFF" fill-rule="nonzero" points="47.8092876 34.494877 63.4758266 78.7879098 79.0585873 34.494877 95.5629092 34.494877 95.5629092 95.5655738 82.9542775 95.5655738 82.9542775 78.8717982 84.2109518 50.0561603 67.7485191 95.5655738 59.1193559 95.5655738 42.6988123 50.0981045 43.9554866 78.8717982 43.9554866 95.5655738 31.388744 95.5655738 31.388744 34.494877"></polygon>
            <path d="M167.360898,66.4143827 C167.360898,72.4263789 166.299707,77.6973617 164.177323,82.2273309 C162.05494,86.7573002 159.017977,90.2526469 155.066435,92.7133709 C151.114893,95.1740949 146.583884,96.404457 141.473409,96.404457 C136.418785,96.404457 131.908721,95.1880763 127.943216,92.7553151 C123.97771,90.3225538 120.90584,86.8481792 118.727605,82.3321913 C116.549369,77.8162035 115.446288,72.6221183 115.418362,66.749936 L115.418362,63.7299565 C115.418362,57.7179602 116.500499,52.4260054 118.664771,47.854092 C120.829043,43.2821785 123.886951,39.7728505 127.838493,37.3261078 C131.790035,34.8793652 136.307081,33.6559939 141.38963,33.6559939 C146.472179,33.6559939 150.989225,34.8793652 154.940768,37.3261078 C158.89231,39.7728505 161.950217,43.2821785 164.11449,47.854092 C166.278762,52.4260054 167.360898,57.7039788 167.360898,63.6880123 L167.360898,66.4143827 Z M154.626599,63.6460681 C154.626599,57.2425931 153.481629,52.3770705 151.191689,49.0495005 C148.90175,45.7219305 145.634397,44.0581455 141.38963,44.0581455 C137.17279,44.0581455 133.9194,45.7009584 131.62946,48.9865843 C129.33952,52.2722101 128.180588,57.0887978 128.152661,63.4363473 L128.152661,66.4143827 C128.152661,72.6500811 129.297631,77.4876409 131.587571,80.927062 C133.877511,84.3664831 137.17279,86.0861936 141.473409,86.0861936 C145.690249,86.0861936 148.929676,84.4293993 151.191689,81.1158107 C153.453703,77.8022221 154.598673,72.971653 154.626599,66.6241035 L154.626599,63.6460681 Z" id="Shape" fill="#FFFFFF" fill-rule="nonzero"></path>
            <polygon id="Path" fill="#FFFFFF" fill-rule="nonzero" points="208.831148 80.4237321 222.654565 34.494877 236.645539 34.494877 215.407744 95.5655738 202.296442 95.5655738 181.142426 34.494877 195.09151 34.494877"></polygon>
            <path d="M295.301507,82.9823258 L273.267819,82.9823258 L269.078905,95.5655738 L255.716268,95.5655738 L278.420183,34.494877 L290.065365,34.494877 L312.894947,95.5655738 L299.532311,95.5655738 L295.301507,82.9823258 Z M276.660839,72.789895 L291.908487,72.789895 L284.242774,49.9303279 L276.660839,72.789895 Z" id="Shape" fill="#013ABD" fill-rule="nonzero"></path>
            <path d="M341.882233,74.0482198 L341.882233,95.5655738 L329.315491,95.5655738 L329.315491,34.494877 L353.108523,34.494877 C357.688403,34.494877 361.716742,35.3337602 365.19354,37.0115266 C368.670339,38.689293 371.344263,41.0731195 373.215311,44.1630059 C375.086359,47.2528923 376.021884,50.7692111 376.021884,54.7119621 C376.021884,60.6959956 373.976297,65.4147135 369.885124,68.868116 C365.793951,72.3215185 360.131936,74.0482198 352.899077,74.0482198 L341.882233,74.0482198 Z M341.882233,63.8557889 L353.108523,63.8557889 C356.431728,63.8557889 358.966021,63.0728313 360.711402,61.506916 C362.456783,59.9410007 363.329474,57.7039788 363.329474,54.7958504 C363.329474,51.8038337 362.449802,49.3850538 360.690458,47.5395108 C358.931114,45.6939677 356.501543,44.7432334 353.401747,44.6873079 L341.882233,44.6873079 L341.882233,63.8557889 Z" id="Shape" fill="#013ABD" fill-rule="nonzero"></path>
            <path d="M407.94141,74.0482198 L407.94141,95.5655738 L395.374667,95.5655738 L395.374667,34.494877 L419.1677,34.494877 C423.747579,34.494877 427.775918,35.3337602 431.252717,37.0115266 C434.729516,38.689293 437.403439,41.0731195 439.274488,44.1630059 C441.145536,47.2528923 442.08106,50.7692111 442.08106,54.7119621 C442.08106,60.6959956 440.035474,65.4147135 435.944301,68.868116 C431.853128,72.3215185 426.191112,74.0482198 418.958254,74.0482198 L407.94141,74.0482198 Z M407.94141,63.8557889 L419.1677,63.8557889 C422.490905,63.8557889 425.025198,63.0728313 426.770579,61.506916 C428.51596,59.9410007 429.38865,57.7039788 429.38865,54.7958504 C429.38865,51.8038337 428.508978,49.3850538 426.749634,47.5395108 C424.99029,45.6939677 422.56072,44.7432334 419.460924,44.6873079 L407.94141,44.6873079 L407.94141,63.8557889 Z" id="Shape" fill="#013ABD" fill-rule="nonzero"></path>
        </g>
    </g>
</svg>