<?xml version="1.0" encoding="UTF-8"?>
<svg width="58px" height="66px" viewBox="0 0 58 66" version="1.1" xmlns="http://www.w3.org/2000/svg" xmlns:xlink="http://www.w3.org/1999/xlink">
    <title>tutorial-dictionary</title>
    <g id="Mobile-App" stroke="none" stroke-width="1" fill="none" fill-rule="evenodd">
        <g id="Icons" transform="translate(-437.000000, -352.000000)" fill="#000000" fill-rule="nonzero">
            <g id="tutorial-dictionary" transform="translate(437.000000, 352.000000)">
                <path d="M58,47.4375 L58,6.1875 C58,2.77019531 55.2165179,0 51.7857143,0 L10.3571429,0 C4.63741071,0 0,4.61742187 0,10.3125 L0,57.75 C0,62.3068359 3.70915179,66 8.28571429,66 L55.9285714,66 C57.0735536,66 58,65.0775469 58,63.9375 C58,62.7974531 57.0678571,61.875 55.9285714,61.875 L53.8571429,61.875 L53.8571429,53.2447266 C56.2651786,52.3875 58,50.11875 58,47.4375 Z M4.14285714,10.3125 C4.14285714,6.89519531 6.92504464,4.125 10.3571429,4.125 L12.4285714,4.125 L12.4285714,49.5 L8.28571429,49.5 C6.7696875,49.5 5.36629464,49.9368633 4.14285714,50.6472656 L4.14285714,10.3125 Z M49.7142857,61.875 L8.28571429,61.875 C6.00196429,61.875 4.14285714,60.0239062 4.14285714,57.75 C4.14285714,55.4760937 6.00196429,53.625 8.28571429,53.625 L49.7142857,53.625 L49.7142857,61.875 Z M51.7857143,49.5 L16.5714286,49.5 L16.5714286,4.125 L51.7857143,4.125 C52.925,4.125 53.8571429,5.04925781 53.8571429,6.1875 L53.8571429,47.4375 C53.8571429,48.571875 52.925,49.5 51.7857143,49.5 Z M45.5714286,16.5 L24.8571429,16.5 C23.7178571,16.5 22.7857143,17.428125 22.7857143,18.5625 C22.7857143,19.696875 23.7178571,20.625 24.8571429,20.625 L45.5714286,20.625 C46.7164107,20.625 47.6428571,19.7025469 47.6428571,18.5625 C47.6428571,17.4224531 46.7107143,16.5 45.5714286,16.5 Z M45.5714286,28.875 L24.8571429,28.875 C23.7178571,28.875 22.7857143,29.803125 22.7857143,30.9375 C22.7857143,32.071875 23.7178571,33 24.8571429,33 L45.5714286,33 C46.7164107,33 47.6428571,32.0775469 47.6428571,30.9375 C47.6428571,29.7974531 46.7107143,28.875 45.5714286,28.875 Z" id="Shape"></path>
            </g>
        </g>
    </g>
</svg>