<?xml version="1.0" encoding="UTF-8"?>
<svg width="21px" height="25px" viewBox="0 0 21 25" version="1.1" xmlns="http://www.w3.org/2000/svg" xmlns:xlink="http://www.w3.org/1999/xlink">
    <title>dictionary</title>
    <g id="Mobile-App" stroke="none" stroke-width="1" fill="none" fill-rule="evenodd">
        <g id="Icons" transform="translate(-32.000000, -110.000000)" fill="#000000" fill-rule="nonzero">
            <g id="dictionary" transform="translate(32.000000, 110.636205)">
                <path d="M21,17.25 L21,2.25 C21,1.00734375 19.9921875,0 18.75,0 L3.75,0 C1.6790625,0 0,1.6790625 0,3.75 L0,21 C0,22.6570313 1.34296875,24 3,24 L20.25,24 C20.6645625,24 21,23.6645625 21,23.25 C21,22.8354375 20.6625,22.5 20.25,22.5 L19.5,22.5 L19.5,19.3617188 C20.371875,19.05 21,18.225 21,17.25 Z M1.5,3.75 C1.5,2.50734375 2.50734375,1.5 3.75,1.5 L4.5,1.5 L4.5,18 L3,18 C2.45109375,18 1.94296875,18.1588594 1.5,18.4171875 L1.5,3.75 Z M18,22.5 L3,22.5 C2.173125,22.5 1.5,21.826875 1.5,21 C1.5,20.173125 2.173125,19.5 3,19.5 L18,19.5 L18,22.5 Z M18.75,18 L6,18 L6,1.5 L18.75,1.5 C19.1625,1.5 19.5,1.83609375 19.5,2.25 L19.5,17.25 C19.5,17.6625 19.1625,18 18.75,18 Z M16.5,6 L9,6 C8.5875,6 8.25,6.3375 8.25,6.75 C8.25,7.1625 8.5875,7.5 9,7.5 L16.5,7.5 C16.9145625,7.5 17.25,7.1645625 17.25,6.75 C17.25,6.3354375 16.9125,6 16.5,6 Z M16.5,10.5 L9,10.5 C8.5875,10.5 8.25,10.8375 8.25,11.25 C8.25,11.6625 8.5875,12 9,12 L16.5,12 C16.9145625,12 17.25,11.6645625 17.25,11.25 C17.25,10.8354375 16.9125,10.5 16.5,10.5 Z" id="Shape"></path>
            </g>
        </g>
    </g>
</svg>