<?xml version="1.0" encoding="UTF-8"?>
<svg width="25px" height="25px" viewBox="0 0 25 25" version="1.1" xmlns="http://www.w3.org/2000/svg" xmlns:xlink="http://www.w3.org/1999/xlink">
    <title>play</title>
    <g id="Symbols" stroke="none" stroke-width="1" fill="none" fill-rule="evenodd">
        <g id="dictionary-player---mobile" transform="translate(-248.000000, -30.000000)" fill="#FFD500" fill-rule="nonzero">
            <g id="dictionary-player-copy-4" transform="translate(0.000000, 0.100312)">
                <g id="play" transform="translate(248.332076, 30.687110)">
                    <path d="M8.82656193,6.89531279 C9.17812443,6.69374943 9.61406207,6.66093779 9.96093678,6.9140625 L16.7109368,11.0390625 C17.0437496,11.2453122 17.2499993,11.6062503 17.2499993,12 C17.2499993,12.3937497 17.0437496,12.7546878 16.7109368,12.9609375 L9.96093678,17.0859375 C9.61406207,17.296875 9.17812443,17.3062506 8.82656193,17.1046872 C8.47031164,16.9078131 8.24999928,16.5328131 8.24999928,16.125 L8.24999928,7.83281279 C8.24999928,7.46718693 8.47031164,7.09218693 8.82656193,6.89531279 Z M24,12 C24,18.6281247 18.6281247,24 12,24 C5.37187529,24 0,18.6281247 0,12 C0,5.37187529 5.37187529,0 12,0 C18.6281247,0 24,5.37187529 24,12 Z M12,2.25 C6.61406279,2.25 2.25,6.61406279 2.25,12 C2.25,17.3859372 6.61406279,21.75 12,21.75 C17.3859372,21.75 21.75,17.3859372 21.75,12 C21.75,6.61406279 17.3859372,2.25 12,2.25 Z" id="Shape"></path>
                </g>
            </g>
        </g>
    </g>
</svg>