<svg width="115" height="76" viewBox="0 0 115 76" fill="none" xmlns="http://www.w3.org/2000/svg">
<path fill-rule="evenodd" clip-rule="evenodd" d="M105.714 0.846786H9.28637C4.59515 0.846786 0.792419 4.64952 0.792419 9.34074V25.6156H114.208V9.34074C114.208 4.64952 110.405 0.846786 105.714 0.846786Z" fill="#F5F5F5"/>
<path fill-rule="evenodd" clip-rule="evenodd" d="M0.792419 66.6592C0.792419 71.3503 4.59515 75.1532 9.28637 75.1532H105.714C110.405 75.1532 114.208 71.3505 114.208 66.6592V50.3844H0.792419V66.6592Z" fill="#FF4B55"/>
<path d="M114.208 25.6151H0.792419V50.3826H114.208V25.6151Z" fill="#41479B"/>
<path fill-rule="evenodd" clip-rule="evenodd" d="M29.6391 56.4488C29.0603 56.1163 15.4582 48.2049 15.4582 36.0445V19.4234H44.7897V36.0445C44.7897 48.2049 31.1877 56.1163 30.6089 56.4488L30.124 56.7254L29.6391 56.4488Z" fill="#FF4B55"/>
<path fill-rule="evenodd" clip-rule="evenodd" d="M37.806 33.1114L33.1966 33.7186H31.6604V30.9678H32.5821L36.2696 31.575L35.7701 29.4314L36.2696 27.2878L32.5821 27.8947H31.6604V26.9657L32.2675 22.3564L30.1239 22.9809L27.9803 22.3564L28.5875 26.9657V27.8947H27.6654L23.9783 27.2878L24.4775 29.4314L23.9783 31.575L27.6654 30.9678H28.5875V33.7186H27.0511L22.4418 33.1114L23.0661 35.255L22.4418 37.3984L27.0511 36.7912H28.5875V43.8663H31.6604V36.7912H33.1966L37.806 37.3984L37.1818 35.255L37.806 33.1114Z" fill="#F5F5F5"/>
<path fill-rule="evenodd" clip-rule="evenodd" d="M30.124 40.933C28.1042 40.933 26.372 42.1585 25.6268 43.9055C25.4952 43.8947 25.3694 43.8661 25.2354 43.8661C22.6324 43.8661 20.5247 45.9063 20.3754 48.4716C24.3349 53.3458 29.2944 56.2503 29.6391 56.4485L30.124 56.7254L30.6089 56.4485C30.9535 56.2505 35.913 53.346 39.8726 48.4716C39.7235 45.9063 37.6156 43.8661 35.0126 43.8661C34.8785 43.8661 34.7525 43.8947 34.6212 43.9055C33.876 42.1585 32.1437 40.933 30.124 40.933Z" fill="#41479B"/>
<path d="M43.812 20.4012C43.812 20.4012 43.812 32.1339 43.812 36.0447C43.812 47.7774 30.1239 55.5991 30.1239 55.5991C30.1239 55.5991 16.4359 47.7774 16.4359 36.0447C16.4359 32.1339 16.4359 20.4012 16.4359 20.4012H43.812ZM45.7675 18.4456H43.8117H16.4359H14.4804V20.4012V36.0447C14.4804 48.7658 28.5547 56.9543 29.1537 57.2967L30.1239 57.8512L31.0942 57.2967C31.6934 56.9543 45.7675 48.7656 45.7675 36.0447V20.4012V18.4456Z" fill="#F5F5F5"/>
</svg>
