<?xml version="1.0" encoding="UTF-8"?>
<svg width="20px" height="17px" viewBox="0 0 20 17" version="1.1" xmlns="http://www.w3.org/2000/svg" xmlns:xlink="http://www.w3.org/1999/xlink">
    <title>menu</title>
    <g id="Symbols" stroke="none" stroke-width="1" fill="none" fill-rule="evenodd">
        <g id="Mobile---TabBar" transform="translate(-259.000000, -12.000000)" fill="#D2D2D2" fill-rule="nonzero">
            <g id="bars" transform="translate(259.000000, 12.500000)">
                <path d="M0,1.03125 C0,0.461914062 0.461914063,0 1.03125,0 L18.21875,0 C18.7902339,0 19.25,0.461914062 19.25,1.03125 C19.25,1.60273385 18.7902339,2.0625 18.21875,2.0625 L1.03125,2.0625 C0.461914063,2.0625 0,1.60273385 0,1.03125 Z M0,7.90625 C0,7.33476549 0.461914063,6.875 1.03125,6.875 L18.21875,6.875 C18.7902339,6.875 19.25,7.33476549 19.25,7.90625 C19.25,8.47773385 18.7902339,8.9375 18.21875,8.9375 L1.03125,8.9375 C0.461914063,8.9375 0,8.47773385 0,7.90625 Z M18.21875,15.8125 L1.03125,15.8125 C0.461914063,15.8125 0,15.3527339 0,14.78125 C0,14.2097661 0.461914063,13.75 1.03125,13.75 L18.21875,13.75 C18.7902339,13.75 19.25,14.2097661 19.25,14.78125 C19.25,15.3527339 18.7902339,15.8125 18.21875,15.8125 Z" id="Shape"></path>
            </g>
        </g>
    </g>
</svg>