<?xml version="1.0" encoding="UTF-8"?>
<svg width="66px" height="59px" viewBox="0 0 66 59" version="1.1" xmlns="http://www.w3.org/2000/svg" xmlns:xlink="http://www.w3.org/1999/xlink">
    <title>tutorial-child</title>
    <g id="Mobile-App" stroke="none" stroke-width="1" fill="none" fill-rule="evenodd">
        <g id="Icons" transform="translate(-429.000000, -118.000000)" fill="#000000" fill-rule="nonzero">
            <g id="tutorial-child" transform="translate(429.000000, 118.000000)">
                <path d="M18.3978382,13.7474609 C18.3978382,13.8972656 18.3634141,14.0355469 18.3634141,14.1738281 C18.3634141,22.6435547 24.938414,29.5 33.051023,29.5 C41.1636319,29.5 47.7386318,22.6400977 47.7386318,14.2775391 C47.7386318,14.1310762 47.7099451,13.9912969 47.7036684,13.8458711 C49.9073491,12.4683594 51.4105341,10.1118164 51.4105341,7.375 C51.4105341,3.30146484 48.1230341,0 44.0667296,0 C41.2037934,0 38.7493562,1.66167969 37.538776,4.06316406 C36.0459182,3.83615234 34.5542079,3.6875 33.051023,3.6875 C31.547838,3.6875 30.0561277,3.83615234 28.5644174,4.06316406 C27.3480998,1.66167969 24.8007177,0 22.0353163,0 C17.9847492,0 14.6915119,3.30146484 14.6915119,7.375 C14.6915119,10.1118164 16.1946968,12.4683594 18.3978382,13.7474609 Z M33.051023,25.8125 C29.0004558,25.8125 25.7072185,23.9572266 25.7072185,21.6640625 C25.7072185,20.1095508 27.2390902,18.7705273 29.480098,18.0595312 C29.4594436,18.1839844 29.3791207,18.2992187 29.3791207,18.4375 C29.3791207,19.9643555 31.0234445,21.203125 33.051023,21.203125 C35.0786015,21.203125 36.7229252,19.9701172 36.7229252,18.4375 C36.7229252,18.3035977 36.6462742,18.1888242 36.6218446,18.0601074 C38.8572183,18.7716797 40.3948274,20.1083984 40.3948274,21.6640625 C40.3948274,23.9572266 37.1015901,25.8125 33.051023,25.8125 Z M44.0667296,3.6875 C46.0908657,3.6875 47.7386318,5.34226562 47.7386318,7.375 C47.7386318,8.33559375 47.3502134,9.19455078 46.7489394,9.85138672 C45.6687117,7.56744141 43.7597815,5.78015625 41.3650128,4.92626953 C42.0357087,4.17839844 42.9881083,3.6875 44.0667296,3.6875 Z M33.051023,7.375 C35.2874409,7.375 37.5215639,7.66193359 39.6914286,8.22773437 C42.2652026,8.89955078 44.0667296,11.3459766 44.0667296,14.1738281 C44.0667296,16.1685352 43.5449753,18.0191992 42.7035359,19.6612891 C41.5078728,16.7666016 37.7785971,14.75 33.051023,14.75 C28.3234488,14.75 24.5941732,16.7666016 23.4008049,19.6705078 C22.5516775,18.0226562 22.0353163,16.1673828 22.0353163,14.1738281 C22.0353163,11.3425195 23.8345484,8.89609375 26.4106173,8.22427734 C28.5758921,7.66193359 30.8134575,7.375 33.051023,7.375 Z M22.0353163,3.6875 C23.1157735,3.6875 24.0640423,4.17839844 24.7364594,4.92626953 C22.345133,5.78130859 20.4288591,7.56744141 19.3502378,9.85138672 C18.7535537,9.19455078 18.3634141,8.33605469 18.3634141,7.375 C18.3634141,5.34226562 20.0157701,3.6875 22.0353163,3.6875 Z M61.0722268,39.0990234 C57.2144345,37.8026367 53.065185,39.9020918 51.7823142,43.7625586 L51.62098,44.2523047 L49.5704521,44.2523047 L49.5704521,42.0766797 C53.8803473,39.6993945 57.7737111,36.3403125 60.951054,32.084707 C63.3859842,28.8258789 62.7296316,24.2026758 59.4845881,21.7608594 C56.2361021,19.3086719 51.6358971,19.9816406 49.2044093,23.2335547 C45.3535019,28.390293 39.9110543,31.3460547 34.2758318,31.3460547 L31.8232307,31.3460547 C26.1834183,31.3460547 20.7409708,28.390293 16.8946532,23.2335547 C14.462018,19.9816406 9.87099272,19.3017578 6.61447443,21.75625 C3.37057832,24.1992188 2.71422579,28.8201172 5.14800848,32.08125 C8.32535138,36.3368555 12.2175677,39.6947852 16.5286104,42.0732227 L16.5286104,44.2488477 L14.4734927,44.2488477 L14.3121585,43.7591016 C13.03273,39.89875 8.88692292,37.7991797 5.02224583,39.0955664 C1.17478079,40.3850391 -0.904433846,44.5622852 0.379584462,48.4249414 L2.11226332,53.9561914 C3.21911235,56.971875 6.02352767,59 9.18595346,59 L56.8174101,59 C59.9798359,59 62.7831037,56.9695703 63.7836971,53.9584961 L65.5163759,48.4272461 C67.0046438,44.5611328 64.9277241,40.3896484 61.0722268,39.0990234 Z M23.8712674,55.3125 L9.18595346,55.3125 C7.60474056,55.3125 6.30580515,54.2971699 5.70453116,52.7923242 L3.86858005,47.3647852 C3.22691514,45.4311523 4.2666372,43.3419531 6.18876327,42.70125 C8.1291341,42.0568594 10.1899892,43.100998 10.8325721,45.0312891 L11.8328212,48.0412109 L17.698685,48.0412109 C18.6524616,48.0412109 19.6057792,48.2681074 20.4594965,48.6964336 C22.5639555,49.7515195 23.8732181,51.87575 23.8732181,54.2426641 L23.8732181,55.3125 L23.8712674,55.3125 Z M40.3948274,48.4791016 C39.2509151,50.109668 38.5588763,52.0456055 38.5588763,54.135957 L38.5588763,55.3125 L27.5431696,55.3125 L27.5431696,54.1382617 C27.5431696,52.0479102 26.8506718,50.1119727 25.7072185,48.4814063 L25.7072185,46.7091016 C25.7072185,44.3421875 27.6349672,42.40625 29.9872795,42.40625 L36.1044391,42.40625 C38.4785534,42.40625 40.3948274,44.3421875 40.3948274,46.7044922 L40.3948274,48.4791016 Z M36.1147664,38.71875 L29.9872795,38.71875 C26.0640815,38.71875 22.816743,41.5880859 22.1672753,45.3447266 C22.1408261,45.3312211 22.1220076,45.3084854 22.0953289,45.2952104 C21.490842,44.9917982 20.8480297,44.7773471 20.1951195,44.6044955 L20.1951195,39.7789063 C15.576555,37.6516797 11.3986188,34.3121875 8.07784222,29.865293 C6.86577024,28.2439453 7.19624144,25.9277344 8.81991071,24.70625 C10.4401376,23.4824609 12.7431087,23.8098418 13.9582789,25.4444414 C18.5079952,31.5368828 25.0233267,35.0307891 31.8243781,35.0307891 L34.2696355,35.0307891 C41.0752768,35.0307891 47.5917558,31.5380352 52.1357348,25.4444414 C53.3509049,23.813875 55.6527286,23.4889141 57.2741029,24.70625 C58.8977722,25.926582 59.2282434,28.2393359 58.0089424,29.8664453 C54.6904607,34.3121875 50.511377,37.652832 45.891665,39.7800586 L45.891665,44.6026172 C45.2389844,44.7754688 44.596172,44.9899199 43.9914556,45.293332 C43.9647884,45.306607 43.9459585,45.3293428 43.9195093,45.3428482 C43.2749757,41.5880859 40.0276372,38.71875 36.1147664,38.71875 Z M62.2311709,47.2576172 L60.3952198,52.6851562 C59.7985357,54.2984375 58.5018952,55.3125 56.8151151,55.3125 L42.2307785,55.3125 L42.2307785,54.1382617 C42.2307785,51.7725 43.5400411,49.6475781 45.6445001,48.5920312 C46.4979879,48.1637051 47.4517645,47.9368086 48.4053116,47.9368086 L54.2711754,47.9368086 L55.2714245,44.9268867 C55.9133189,42.9967109 57.9714201,41.9526875 59.9152333,42.5968477 C61.8410313,43.2359375 62.8737538,45.3216797 62.2311709,47.2576172 Z M27.5431696,14.75 C28.5529427,14.75 29.3791207,13.9203125 29.3791207,12.90625 C29.3791207,11.8921875 28.5529427,11.0625 27.5431696,11.0625 C26.5333965,11.0625 25.7072185,11.8921875 25.7072185,12.90625 C25.7072185,13.9203125 26.5333965,14.75 27.5431696,14.75 Z M38.5588763,14.75 C39.5686494,14.75 40.3948274,13.9203125 40.3948274,12.90625 C40.3948274,11.8921875 39.5686494,11.0625 38.5588763,11.0625 C37.5491032,11.0625 36.7229252,11.8921875 36.7229252,12.90625 C36.7229252,13.9203125 37.5491032,14.75 38.5588763,14.75 Z" id="Shape"></path>
            </g>
        </g>
    </g>
</svg>