<?xml version="1.0" encoding="UTF-8"?>
<svg width="24px" height="22px" viewBox="0 0 24 22" version="1.1" xmlns="http://www.w3.org/2000/svg" xmlns:xlink="http://www.w3.org/1999/xlink">
    <title>child</title>
    <g id="Mobile-App" stroke="none" stroke-width="1" fill="none" fill-rule="evenodd">
        <g id="Icons" transform="translate(-29.000000, -26.000000)" fill="#000000" fill-rule="nonzero">
            <g id="child" transform="translate(29.000000, 26.000000)">
                <path d="M6.69012297,4.97793108 C6.69012297,5.03217509 6.67760512,5.08224648 6.67760512,5.13231788 C6.67760512,8.19919076 9.06851418,10.6818974 12.0185538,10.6818974 C14.9685934,10.6818974 17.3595025,8.19793897 17.3595025,5.16987142 C17.3595025,5.11683747 17.3490709,5.06622364 17.3467885,5.01356522 C18.1481269,4.51477069 18.6947397,3.66147068 18.6947397,2.67047434 C18.6947397,1.19545453 17.4992851,0 16.0242653,0 C14.9831976,0 14.090675,0.60169125 13.650464,1.47126446 C13.1076066,1.38906392 12.5651665,1.33523717 12.0185538,1.33523717 C11.4719411,1.33523717 10.929501,1.38906392 10.3870609,1.47126446 C9.94476357,0.60169125 9.01844278,0 8.01284229,0 C6.53990878,0 5.34236795,1.19545453 5.34236795,2.67047434 C5.34236795,3.66147068 5.88898066,4.51477069 6.69012297,4.97793108 Z M12.0185538,9.3466602 C10.5456203,9.3466602 9.34807946,8.674869 9.34807946,7.84451838 C9.34807946,7.28163246 9.90512372,6.79677446 10.7200357,6.53932405 C10.7125249,6.5843883 10.6833166,6.62611446 10.6833166,6.67618586 C10.6833166,7.2290575 11.2812525,7.67761374 12.0185538,7.67761374 C12.7558551,7.67761374 13.353791,7.23114381 13.353791,6.67618586 C13.353791,6.62770006 13.3259179,6.5861408 13.3170344,6.53953268 C14.1298976,6.79719173 14.6890281,7.2812152 14.6890281,7.84451838 C14.6890281,8.674869 13.4914873,9.3466602 12.0185538,9.3466602 Z M16.0242653,1.33523717 C16.7603148,1.33523717 17.3595025,1.93442485 17.3595025,2.67047434 C17.3595025,3.01830363 17.2182594,3.32933043 16.9996143,3.56716956 C16.6068043,2.74015703 15.9126478,2.09298427 15.0418228,1.78379341 C15.2857123,1.51299062 15.6320394,1.33523717 16.0242653,1.33523717 Z M12.0185538,2.67047434 C12.8317967,2.67047434 13.6442051,2.77437249 14.4332468,2.97924794 C15.3691646,3.22251146 16.0242653,4.10835787 16.0242653,5.13231788 C16.0242653,5.85459773 15.8345365,6.52471989 15.5285585,7.11931769 C15.0937719,6.07115651 13.7376717,5.34094869 12.0185538,5.34094869 C10.2994359,5.34094869 8.94333569,6.07115651 8.50938361,7.12265579 C8.20061002,6.52597168 8.01284229,5.85418047 8.01284229,5.13231788 C8.01284229,4.10710609 8.6671085,3.22125968 9.60386083,2.97799615 C10.3912335,2.77437249 11.2048937,2.67047434 12.0185538,2.67047434 Z M8.01284229,1.33523717 C8.40573583,1.33523717 8.75056083,1.51299062 8.99507613,1.78379341 C8.12550293,2.09340153 7.42867603,2.74015703 7.03645011,3.56716956 C6.81947407,3.32933043 6.67760512,3.01847053 6.67760512,2.67047434 C6.67760512,1.93442485 7.27846184,1.33523717 8.01284229,1.33523717 Z M22.2080825,14.1576866 C20.8052489,13.6882673 19.2964309,14.4484763 18.8299324,15.8463444 L18.7712654,16.0236806 L18.0256189,16.0236806 L18.0256189,15.2358906 C19.5928536,14.3750799 21.0086222,13.1587623 22.1640196,11.6178152 C23.0494488,10.4377993 22.8107751,8.76374572 21.6307593,7.87956836 C20.4494917,6.99163564 18.7766898,7.23531642 17.8925125,8.4128287 C16.4921825,10.2800744 14.5131106,11.3503505 12.4639389,11.3503505 L11.5720839,11.3503505 C9.52124303,11.3503505 7.54217119,10.2800744 6.14351025,8.4128287 C5.25891562,7.23531642 3.5894519,6.98913207 2.40526343,7.87789931 C1.22566484,8.76249394 0.986991198,10.435713 1.87200309,11.6165634 C3.0274005,13.1575105 4.4427519,14.3734109 6.01040379,15.2346389 L6.01040379,16.0224288 L5.26308824,16.0224288 L5.20442126,15.8450926 C4.73917455,14.4472662 3.23160834,13.6870155 1.82627121,14.1564348 C0.427193013,14.6233506 -0.328885035,16.135924 0.138030714,17.5345849 L0.768095754,19.5374406 C1.17058631,20.6294143 2.1903737,21.3637947 3.34034671,21.3637947 L20.6608764,21.3637947 C21.8108494,21.3637947 22.8302195,20.6285798 23.1940717,19.5382752 L23.8241367,17.5354194 C24.365325,16.1355067 23.6100815,14.6250196 22.2080825,14.1576866 Z M8.68046087,20.0285576 L3.34034671,20.0285576 C2.76536021,20.0285576 2.29302006,19.6609084 2.07437497,19.1160064 L1.40675638,17.1507042 C1.17342369,16.4505392 1.55150444,15.6940439 2.25045937,15.4620464 C2.95604876,15.2287137 3.70545063,15.6067945 3.93911713,16.3057494 L4.30284408,17.3956368 L6.43588546,17.3956368 C6.78271332,17.3956368 7.12937427,17.4777956 7.43981691,17.6328917 C8.20507472,18.0149365 8.68117022,18.7841165 8.68117022,19.6411719 L8.68117022,20.0285576 L8.68046087,20.0285576 Z M14.6890281,17.5541962 C14.27306,18.1446214 14.0214096,18.8456209 14.0214096,19.6025335 L14.0214096,20.0285576 L10.015698,20.0285576 L10.015698,19.603368 C10.015698,18.8464554 9.76388066,18.1454559 9.34807946,17.5550307 L9.34807946,16.9132823 C9.34807946,16.056227 10.049079,15.3552275 10.9044653,15.3552275 L13.128887,15.3552275 C13.9922012,15.3552275 14.6890281,16.056227 14.6890281,16.9116133 L14.6890281,17.5541962 Z M13.1326423,14.0199903 L10.9044653,14.0199903 C9.47784782,14.0199903 8.29699745,15.0589717 8.06082737,16.4192446 C8.05120949,16.4143543 8.0443664,16.4061217 8.03466507,16.4013149 C7.81485165,16.2914499 7.58110169,16.2137975 7.34367984,16.1512082 L7.34367984,14.403871 C5.66420183,13.633606 4.14495229,12.4243819 2.93739717,10.8141693 C2.49664372,10.2270822 2.61681507,9.38838636 3.20724026,8.94608905 C3.79641366,8.50295721 4.63385772,8.62150124 5.07573777,9.21338684 C6.73018008,11.419449 9.09939154,12.6845862 11.5725011,12.6845862 L12.4616856,12.6845862 C14.9364643,12.6845862 17.306093,11.4198663 18.958449,9.21338684 C19.4003291,8.62296165 20.2373559,8.50529388 20.8269465,8.94608905 C21.4173717,9.3879691 21.5375431,10.2254132 21.0941609,10.8145866 C19.8874403,12.4243819 18.3677735,13.6340233 16.6878782,14.4042882 L16.6878782,16.1505281 C16.4505398,16.2131174 16.2167898,16.2907697 15.996893,16.4006347 C15.9871958,16.4054416 15.9803485,16.4136741 15.9707307,16.4185645 C15.7363548,15.0589717 14.5555044,14.0199903 13.1326423,14.0199903 Z M22.6295167,17.1118989 L21.9618981,19.0772011 C21.7449221,19.6613673 21.2734164,20.0285576 20.6600419,20.0285576 L15.3566467,20.0285576 L15.3566467,19.603368 C15.3566467,18.7467299 15.8327422,17.9772995 16.598,17.5950878 C16.9083592,17.4399917 17.2551871,17.3578329 17.6019315,17.3578329 L19.7349729,17.3578329 L20.0986998,16.2679455 C20.332116,15.5690323 21.0805164,15.1909933 21.7873576,15.4242425 C22.4876477,15.6556558 22.8631832,16.4108994 22.6295167,17.1118989 Z M10.015698,5.34094869 C10.3828883,5.34094869 10.6833166,5.04052032 10.6833166,4.6733301 C10.6833166,4.30613988 10.3828883,4.00571151 10.015698,4.00571151 C9.64850782,4.00571151 9.34807946,4.30613988 9.34807946,4.6733301 C9.34807946,5.04052032 9.64850782,5.34094869 10.015698,5.34094869 Z M14.0214096,5.34094869 C14.3885998,5.34094869 14.6890281,5.04052032 14.6890281,4.6733301 C14.6890281,4.30613988 14.3885998,4.00571151 14.0214096,4.00571151 C13.6542193,4.00571151 13.353791,4.30613988 13.353791,4.6733301 C13.353791,5.04052032 13.6542193,5.34094869 14.0214096,5.34094869 Z" id="Shape"></path>
            </g>
        </g>
    </g>
</svg>